<?xml version="1.0" encoding="utf-8"?>
<!-- Generator: Adobe Illustrator 27.5.0, SVG Export Plug-In . SVG Version: 6.00 Build 0)  -->
<svg version="1.1" id="Layer_1" xmlns="http://www.w3.org/2000/svg" xmlns:xlink="http://www.w3.org/1999/xlink" x="0px" y="0px"
	 viewBox="0 0 500 577.6" style="enable-background:new 0 0 500 577.6;" xml:space="preserve">
<style type="text/css">
	.st0{fill:#ED1C24;}
	.st1{fill:#FFFFFF;}
</style>
<g>
	<g>
		<path class="st0" d="M2.5,6v313.4c0,137.1,111.1,248.2,248.2,248.2s248.2-111.1,248.2-248.2V6H2.5z"/>
		<g>
			<path class="st1" d="M471.5,33.3h-43.9l-177,177l0,0l0,0l-177-177H29.7v50.1l173.9,173.9L49.7,411.2c9.6,21,22.2,39.8,37.4,56.5
				l163.5-163.5l0,0l0,0l163.5,163.5c15.2-16.7,27.8-35.6,37.4-56.5L297.6,257.3L471.5,83.4V33.3z"/>
			<g>
				<path class="st0" d="M291.7,246.7c-6.6-4.8-12.7,5.9-12.7,5.9c-4.2-5.6-8.2,0.5-8.2,0.5c5.6,3.9,5.1,13-5.5,10.7
					c-10.6-2.3-11.8-11.5-11.8-11.5l8,2.9l0-13.2l-7.6,2.8l2.6-9.3h-6h-6l2.6,9.3l-7.6-2.8l0,13.2l8-2.9c0,0-1.1,9.2-11.8,11.5
					c-10.6,2.3-11.1-6.8-5.5-10.7c0,0-4-6.1-8.1-0.5c0,0-6.1-10.8-12.7-5.9c0,0,9.3,11.5,10.5,42.3c0,0,8.8-5.7,30.7-5.4
					c21.9-0.2,30.7,5.4,30.7,5.4C282.4,258.2,291.7,246.7,291.7,246.7"/>
				<g>
					<path class="st0" d="M215.1,241.2c0.7,0.1,1.3,0.4,2,0.6c5.9-12.6,18.7-21.3,33.6-21.3s27.6,8.7,33.6,21.3
						c0.6-0.3,1.3-0.5,2-0.6c2.1-0.4,4.1-0.2,6,0.6c-5.6-14.7-18.8-25.7-34.7-28.1l-6.9,6.9l0,0l0,0l-6.9-6.9
						c-16,2.5-29.1,13.4-34.7,28.1C210.9,241,213,240.8,215.1,241.2z"/>
				</g>
				<g>
					<path class="st0" d="M250.5,292.6L250.5,292.6l8.3,8.3c11.2-0.8,19.4-3.2,19.4-6c0-3.5-12.4-6.3-27.7-6.3s-27.7,2.8-27.7,6.3
						c0,2.8,8.1,5.2,19.4,6L250.5,292.6L250.5,292.6z"/>
				</g>
			</g>
			<path class="st1" d="M304.6,42.6c4.2,0,7.7,3.4,7.7,7.7v83.4h-53c-1.2,3.6-4.6,6.2-8.6,6.3h0h0c-4,0-7.4-2.7-8.6-6.3h-53V50.3
				c0-4.2,3.4-7.7,7.7-7.7v83.5h45.6c0,0,6.9-0.2,8.3,7.6c1.5-7.8,8.3-7.6,8.3-7.6h45.6L304.6,42.6 M275.4,39.1
				c8.8,6.9,21.4,3.6,21.4,3.6v75.9c0,0-12.6,3.3-21.4-3.6c-8.7-6.8-24.6-1.1-24.8,7v0.2c0,0,0-0.1,0-0.1c0,0,0,0.1,0,0.1v-0.2
				c-0.2-8.2-16.1-13.8-24.8-7c-8.8,6.9-21.4,3.6-21.4,3.6V42.6c0,0,12.6,3.3,21.4-3.6c8.8-6.9,24.7-1.1,24.8,7.1
				C250.7,38,266.7,32.2,275.4,39.1 M239.4,92.6c-1.6-0.4-7.6-1.8-13.4,1.8c-5.7,3.6-10.9,3.4-12.1,3.3v5.4
				c1.3,0.1,6.4,0.3,12.1-3.3c5.7-3.6,11.8-2.2,13.4-1.8V92.6z M239.4,72.2c-1.6-0.5-7.6-1.8-13.4,1.8c-5.7,3.6-10.9,3.5-12.1,3.3
				v5.5c1.3,0.1,6.4,0.3,12.1-3.3c5.7-3.6,11.8-2.2,13.4-1.8V72.2z M239.4,51.8c-1.6-0.5-7.6-1.8-13.4,1.8
				c-5.7,3.6-10.9,3.4-12.1,3.3v5.5c1.3,0.1,6.4,0.3,12.1-3.3c5.7-3.6,11.8-2.2,13.4-1.8V51.8z M287.4,97.7
				c-1.3,0.1-6.4,0.3-12.1-3.3c-5.7-3.6-11.8-2.2-13.4-1.8V98c1.5-0.4,7.7-1.8,13.4,1.8c5.7,3.6,10.9,3.4,12.1,3.3V97.7z
				 M287.4,77.3c-1.3,0.1-6.4,0.3-12.1-3.3c-5.7-3.6-11.8-2.2-13.4-1.8v5.5c1.5-0.4,7.7-1.8,13.4,1.8c5.7,3.6,10.9,3.4,12.1,3.3
				V77.3z M287.4,56.9c-1.3,0.1-6.4,0.3-12.1-3.3c-5.7-3.6-11.8-2.2-13.4-1.8v5.5c1.5-0.5,7.7-1.8,13.4,1.8
				c5.7,3.6,10.9,3.4,12.1,3.3V56.9z"/>
			<path class="st1" d="M168.1,488c0-0.3,0.3-0.6,0.6-0.6h14c0.4,0,0.6,0.3,0.6,0.6v2.8c0,0.3-0.3,0.6-0.6,0.6h-10.1v5.6h8.5
				c0.4,0,0.7,0.3,0.7,0.6v2.9c0,0.4-0.3,0.6-0.7,0.6h-8.5v6h10.1c0.4,0,0.6,0.3,0.6,0.6v2.8c0,0.3-0.3,0.6-0.6,0.6h-14
				c-0.4,0-0.6-0.3-0.6-0.6V488z M191.5,509c0.7,0.6,3.2,2.7,7.5,2.7c4.8,0,7.9-3.3,7.9-6.8c0-4.4-3.8-6.4-7.2-7.8
				c-2.8-1.1-4.1-2.2-4.1-3.8c0-1.1,1.1-2.4,3-2.4c1.9,0,4.5,1.7,4.8,1.9c0.4,0.3,0.9,0,1.2-0.4l1.3-2c0.2-0.3,0.1-0.9-0.2-1.1
				c-0.7-0.5-3.4-2.3-6.9-2.3c-5.5,0-7.7,3.5-7.7,6.6c0,4,3.2,6.1,6.4,7.4c2.9,1.2,4.4,2.4,4.4,4.1c0,1.5-1.3,2.6-3.1,2.6
				c-2.2,0-5-2-5.2-2.1c-0.3-0.2-0.9-0.2-1.2,0.2l-1.2,2.1C191,508.6,191.1,508.7,191.5,509 M218.7,510.7c0,0.3,0.3,0.6,0.6,0.6h3.2
				c0.3,0,0.6-0.3,0.6-0.6v-19.2h5.2c0.4,0,0.7-0.3,0.7-0.6V488c0-0.3-0.3-0.6-0.7-0.6h-15c-0.4,0-0.7,0.3-0.7,0.6v2.8
				c0,0.3,0.3,0.6,0.7,0.6h5.2L218.7,510.7L218.7,510.7z M259.2,510.7c0,0.3,0.3,0.6,0.6,0.6h3c0.4,0,0.6-0.3,0.6-0.6v-22
				c0-0.3-0.3-0.6-0.6-0.6h-2.4l-4.9,4.1c-0.1,0.1-0.2,0.3-0.2,0.6l0.2,1.7c0,0.3,0.4,0.5,0.7,0.4l3-0.6L259.2,510.7L259.2,510.7z
				 M271.3,505.1c0-3,3.2-5.2,4.1-5.7v-0.1c-1.4-0.8-3.5-2.6-3.5-5.3c0-3.8,3.3-6.3,7.4-6.3c4.3,0,7.6,2.5,7.6,6.3
				c0,2.6-2.1,4.5-3.5,5.3v0.1c1.5,0.8,4.1,2.8,4.1,5.7c0,3.7-3.2,6.6-8.2,6.6C274.5,511.7,271.3,508.9,271.3,505.1 M279.5,497.4
				c2.1-0.5,3.1-1.8,3.1-3.3c0-1.6-1.4-2.9-3.2-2.9c-1.6,0-3,1.3-3,2.9C276.3,495.7,277.3,496.9,279.5,497.4 M275.9,505.1
				c0,1.9,1.7,3.1,3.6,3.1c1.9,0,3.6-1.3,3.6-3.1c0-1.5-1.3-3.1-3.6-3.6C277.2,502,275.9,503.5,275.9,505.1 M294.1,506.4
				c-0.4,0-0.7-0.3-0.7-0.6v-2.9l12.4-15c0.1-0.1,0.3-0.2,0.5-0.2h1.9c0.3,0,0.6,0.3,0.6,0.6v14.6h2.7c0.4,0,0.7,0.3,0.7,0.6v2.1
				c0,0.3-0.3,0.6-0.7,0.6h-2.7l0,4.4c0,0.3-0.3,0.7-0.6,0.7h-2.9c-0.4,0-0.7-0.3-0.7-0.7v-4.3L294.1,506.4 M304.8,502.8v-8.2
				l-6.9,8.2H304.8z M318.1,508.9c0.9,1,3.1,2.9,6.8,2.9c4.7,0,8.3-3.6,8.3-7.9c0-4.5-3-7.6-7.9-7.6h-3v-4.6h7.6
				c0.4,0,0.6-0.3,0.6-0.6v-2.3c0-0.3-0.3-0.6-0.6-0.6h-10.8c-0.4,0-0.6,0.3-0.6,0.6v10.1c0,0.5,0.4,1.2,1.1,1.2h5.3
				c2.7,0,4.1,1.7,4.1,3.8c0,2.2-1.6,4-4,4c-2.3,0-4.3-1.8-4.4-1.9c-0.3-0.2-0.6-0.2-0.8,0l-1.7,1.7
				C317.6,508.1,317.6,508.4,318.1,508.9 M236.6,508.7c0,1.5,1.2,2.7,2.7,2.7s2.7-1.2,2.7-2.7s-1.2-2.7-2.7-2.7
				S236.6,507.2,236.6,508.7 M240.3,503.5c4.5,0,8.1-3.6,8.1-8.1c0-4.4-3.6-8-8.1-8h-5.2c-0.5,0-0.8,0.4-0.8,0.9v14.4
				c0,0.5,0.4,0.9,0.8,0.9L240.3,503.5 M238,490.9h2c2.6,0,4.4,1.9,4.4,4.5c0,2.6-1.9,4.5-4.4,4.5h-2V490.9z"/>
			<path class="st1" d="M127.7,222.8c0-4-3.2-7.2-7.2-7.2c-4,0-7.2,3.2-7.2,7.2l0,34c0,0-19.9-2.3-31,21.5c0,0,8.1-25.6,26.9-26.1
				c0,0,0-63.4,0-63.5c0-3.6-2.9-6.5-6.5-6.5c-3.6,0-6.5,2.9-6.5,6.5V235c0,0,4.3,0.8,5.3,1.1c0,0-3.6-0.3-5.3-0.4
				c-1.3-0.1-2.6-0.1-3.8-0.1v-54.8c0-3.6-2.9-6.5-6.5-6.5s-6.5,2.9-6.5,6.5v55.8c-1.3,0.1-2.5,0.3-3.7,0.4v-44.6
				c0-3.2-2.6-5.9-5.9-5.9s-5.8,2.6-5.8,5.9v46.5c-5.1,0.9-8.7,1.7-9.3,1.9c1.8-0.8,3.7-1.6,5.5-2.2v-27.6c0-2.7-2.2-4.9-4.9-4.9
				c-2.7,0-4.8,2.2-4.8,4.9v58.9c0.5,13.5,4.3,39.1,26.2,38.9c0,0-5.4,2.1-11.9-1.1c0,0,0.3,1.2-0.1,5.7c-0.3,4.5,0.3,8.4,1.3,10.1
				h39.4c0,0-5.3-13.4,7.2-31.1c0,0,14.7-20.6,14.7-35.6V222.8z M65.1,270.5c20.7-34.6,39.8-24.3,39.8-24.3
				C82.6,244.7,67.2,267.4,65.1,270.5z"/>
			<g>
				<path class="st1" d="M406.9,220.1c0.1,0,13.8,1.3,15.8-11.8c0,0,0.8,14.1,13.8,6.6c0,0-1.2,14.3,12.4,7.6c0,0-3,11.6,7.6,10.2
					c0,0,26.5-62.7-44.1-48.4c0,0,18.5-13.8,39.2-2.6c0,0-18.3-26.8-58.9-3.3c0,0,8.5,4.4,4.7,12.5c0,0-5,3.7-7,8.1
					c-2,4.4-0.3,17.2-16.6,18c0,0-2.6,8.1,8.5,11.2c2,0.6,2.5,0.1,7.6-4.1C395.1,219.6,406.8,220.1,406.9,220.1z M395.5,201.7
					c1.4-2.5,5.9,1.6,5.9,1.6s-0.8-0.1-3.5,1.6C394.7,207.1,394.1,204.2,395.5,201.7z"/>
				<path class="st1" d="M441.1,252.4c1.4-1.9,7.4-7.3,6.2-9c-4.5-6.4-18.9-20.8-29.9-16c-3.6,1.6-9.1,4.5-11.1,5.4
					c-7.6,3.2-14.1,8.4-17.5,16.1c-7.2,16.3,5.3,30.9,17.2,40.7c6.2,5.1,12.7,9.8,18.9,15c4.5,3.8,10.2,10,8,16.5
					c-2,5.9-10.7,10-15.2,4c-2.1-2.8-2.3-7.4,0.9-9.5c3.4-2.1,7.2,1.4,8,4.6c0.6-6.2-1.4-13.4-8.2-15.1c-6.4-1.6-13.1,2.5-16.4,7.8
					c-5.9,9.7-2.4,24.3,7.3,30.2c10,6.1,24.2,2.4,30.8-7c4.1-6,4.6-13.8,1.9-20.4c-2.9-7-9.1-11.3-15-15.7
					c-6.7-5-11.9-10.1-16.9-17.1c-7.2-10.2-7.5-22.6-5.7-26.6c-2,8.7,3.4,17.5,8.7,24c6.1,7.4,14,13,21.9,18.5
					c4.1,2.8,7.9,6.1,10.2,10.6c-0.6-6.2-3.5-11.9-6.8-17.2c2.7,0.5,6.3,1.2,8.8-0.2c4.1-2.2-0.7-7.6-2.6-9.6
					c6-0.8,11.9-4.5,14-10.4c2.5-6.9-0.5-14.4-3.7-20.5C449.9,272.9,432.7,263.7,441.1,252.4z"/>
			</g>
			<path class="st1" d="M243.2,390.1c-2.3,0.7-4.6,1.4-6.9,1.9l1.4,55.1l5-7.2L243.2,390.1z M250.4,387.3c-2.2,1-4.5,1.9-6.8,2.7
				l1.2,47l5.2-7.5L250.4,387.3z M257.6,383.7c-0.9,0.5-1.9,1-2.8,1.5c-1.2,0.7-2.6,1.3-3.9,1.9l1,39.7l5.4-7.8L257.6,383.7z
				 M264.8,380.3c-2.1,0.9-4.4,2-6.7,3.1l0.9,33.2l5.6-8.1L264.8,380.3z M272,377.5c-1.9,0.7-4.2,1.6-6.7,2.6l0.7,26.4l5.8-8.4
				L272,377.5z M278.6,375.3c0,0-2.3,0.7-6,2l0.5,19.1l5.5-7.9L278.6,375.3L278.6,375.3z M226.4,396.2c-4.7-0.1-9-1.1-12.5-3.5
				c-3.4,43.9,22.3,67.6,22.3,67.6c-1.8-1.6-4.2-2.5-7-2c-3.5,0.7-6.2,3.6-6.5,7.2c-0.5,4.9,3.3,9,8.1,9c2.1,0,3.8-0.8,5.3-2
				c6-4.7,11.8,1.2,12.2,1.7l0,0C217.3,441.7,225.2,401.5,226.4,396.2z M304.2,391.4c0,4.3-3.5,7.8-7.8,7.8c-1.8,0-3.4-0.7-4.7-1.7
				l-1.5,2.8l3.3,2.1l-32.9,71.8c0,0-7.8,0-8.4,0c-1.1-0.7-1.7-1.8-2.5-2.6l40.7-75.3c0,0,0,0,0,0l-42.4,73.3c-3-3.6-5.5-7.2-7.7-11
				l49.2-70.9c1.7-2.5,3.9-4.1,6.8-4.1C300.7,383.6,304.2,387,304.2,391.4z M299.1,374.1v7.8c0,0-6.8-2.1-10.2,2.8
				c-3.3,4.6-46.3,66.2-49.9,71.4c-1.3-2.4-2.5-4.9-3.5-7.3L236,392c-8.2,1.6-16.3,1.3-22.1-2.6v-9.9c0,0,14.4,11.3,40.8,0.3
				c26.4-10.9,35-9.7,42.2-5.6c0,0-11.8-9.5-38.5,2.1c-27.2,11.9-41.4,2.3-46.2-1.9l0.1-13.7c0,0,17.7,21,45.4,9.7
				C285.4,359.3,299.1,374.1,299.1,374.1z"/>
		</g>
	</g>
</g>
</svg>
